<svg xmlns="http://www.w3.org/2000/svg" viewBox="0 0 1200 400" role="img" aria-labelledby="title desc">
  <title>IRMS logo concept 5</title>
  <desc>Modern restaurant system brand mark with an orange icon and IRMS wordmark.</desc>
  <defs>
    <linearGradient id="g5" x1="0" x2="1" y1="0" y2="1">
      <stop offset="0%" stop-color="#ff7a18"/>
      <stop offset="100%" stop-color="#ff9a3a"/>
    </linearGradient>
    <linearGradient id="gold5" x1="0" x2="1" y1="0" y2="1">
      <stop offset="0%" stop-color="#f0d37a"/>
      <stop offset="100%" stop-color="#c89b43"/>
    </linearGradient>
  </defs>

  <rect width="1200" height="400" fill="transparent"/>

  <g transform="translate(70 62)">
    <rect x="0" y="58" width="150" height="150" rx="38" fill="url(#g5)"/>
    <path d="M29 142c0-31 25-56 56-56h41c21 0 39 17 39 39s-18 39-39 39H98v28H73v-50h18c13 0 24-10 24-24s-11-24-24-24h-16c-17 0-31 14-31 31v17H29z" fill="#1b140a" opacity="0.98"/>
    <circle cx="76" cy="127" r="15" fill="#1b140a"/>
    <path d="M86 103c11-11 14-29 8-43-5-12-1-24 10-31" fill="none" stroke="#1b140a" stroke-width="8" stroke-linecap="round"/>
    <path d="M99 96c10-8 17-23 17-38 0-11 5-20 13-25" fill="none" stroke="#1b140a" stroke-width="8" stroke-linecap="round"/>
    <path d="M44 180h100" stroke="url(#gold5)" stroke-width="8" stroke-linecap="round"/>
    <path d="M54 187h80" stroke="#fff" stroke-opacity=".16" stroke-width="4" stroke-linecap="round"/>
  </g>

  <g transform="translate(285 105)">
    <text x="0" y="120" fill="#f4efe9" font-size="122" font-weight="800" font-family="Inter, ui-sans-serif, system-ui, -apple-system, BlinkMacSystemFont, 'Segoe UI', sans-serif" letter-spacing="-2">IRMS</text>
    <text x="6" y="185" fill="#b8b0a7" font-size="28" font-weight="500" font-family="Inter, ui-sans-serif, system-ui, -apple-system, BlinkMacSystemFont, 'Segoe UI', sans-serif" letter-spacing="6">RESTAURANT SYSTEM</text>
  </g>
</svg>
